<svg width="82" height="74" viewBox="0 0 82 74" fill="none" xmlns="http://www.w3.org/2000/svg">
<path d="M47.4627 45.2694C44.3337 45.2694 41.7887 42.7244 41.7887 39.5964C41.7887 36.4674 44.3337 33.9224 47.4627 33.9224C50.5907 33.9224 53.1357 36.4674 53.1357 39.5964C53.1357 42.7244 50.5907 45.2694 47.4627 45.2694ZM62.9727 24.1864C62.5107 23.7254 61.7627 23.7254 61.3007 24.1864L51.7607 33.7274C50.5537 32.8404 49.0707 32.3114 47.4627 32.3114C43.4457 32.3114 40.1777 35.5794 40.1777 39.5964C40.1777 43.6124 43.4457 46.8804 47.4627 46.8804C51.4797 46.8804 54.7477 43.6124 54.7477 39.5964C54.7477 38.0394 54.2527 36.5994 53.4177 35.4144L62.9727 25.8584C63.4347 25.3974 63.4347 24.6484 62.9727 24.1864Z" fill="#F29224"/>
<path d="M8.76503 33.1473H23.047C23.7 33.1473 24.23 32.6183 24.23 31.9643C24.23 31.3113 23.7 30.7823 23.047 30.7823H8.76503C8.11203 30.7823 7.58203 31.3113 7.58203 31.9643C7.58203 32.6183 8.11203 33.1473 8.76503 33.1473Z" fill="#F29224"/>
<path d="M16.647 39.5961C16.647 38.9431 16.118 38.4131 15.465 38.4131H1.182C0.528999 38.4131 0 38.9431 0 39.5961C0 40.2491 0.528999 40.7791 1.182 40.7791H15.465C16.118 40.7791 16.647 40.2491 16.647 39.5961Z" fill="#F29224"/>
<path d="M24.231 47.6112C24.231 46.9582 23.702 46.4282 23.048 46.4282H8.76598C8.11298 46.4282 7.58398 46.9582 7.58398 47.6112C7.58398 48.2642 8.11298 48.7932 8.76598 48.7932H23.048C23.702 48.7932 24.231 48.2642 24.231 47.6112Z" fill="#F29224"/>
<path d="M68.0799 12.2392L69.2949 10.5332L69.9989 11.0342C70.8079 11.6112 71.9319 11.4222 72.5089 10.6122C73.0849 9.80221 72.8969 8.67921 72.0869 8.10221L67.7469 5.01122C66.9379 4.43522 65.8139 4.62421 65.2369 5.43321C64.6609 6.24321 64.8499 7.36721 65.6589 7.94421L66.3629 8.44521L65.1379 10.1652L66.0939 10.8452C61.1989 7.66221 55.4449 5.69422 49.2619 5.37222V3.59921H50.1259C51.1199 3.59921 51.9259 2.79421 51.9259 1.80021C51.9259 0.80621 51.1199 0.000213623 50.1259 0.000213623H44.7989C43.8039 0.000213623 42.9989 0.80621 42.9989 1.80021C42.9989 2.79421 43.8039 3.59921 44.7989 3.59921H45.6619V5.37721C40.1689 5.66321 34.8599 7.25221 30.1319 10.0292L29.0039 8.44521L29.7069 7.94421C30.5169 7.36721 30.7059 6.24321 30.1289 5.43321C29.5529 4.62421 28.4289 4.43522 27.6189 5.01122L23.2799 8.10221C22.4699 8.67921 22.2809 9.80221 22.8579 10.6122C23.4339 11.4222 24.5579 11.6112 25.3679 11.0342L26.0719 10.5332L27.1259 12.0132C22.5079 15.4202 18.8159 19.9172 16.3859 25.1292C16.1309 25.6762 16.3669 26.3252 16.9139 26.5802C17.4599 26.8342 18.1099 26.5982 18.3649 26.0522C23.6179 14.7872 35.0389 7.50921 47.4619 7.50921C65.1549 7.50921 79.5489 21.9032 79.5489 39.5962C79.5489 57.2882 65.1549 71.6832 47.4619 71.6832C35.1099 71.6832 23.7159 64.4632 18.4349 53.2902C18.1779 52.7442 17.5269 52.5112 16.9819 52.7692C16.4359 53.0272 16.2029 53.6782 16.4609 54.2232C19.1969 60.0122 23.4929 64.9142 28.8829 68.3982C34.4179 71.9752 40.8419 73.8662 47.4619 73.8662C66.3589 73.8662 81.7329 58.4932 81.7329 39.5962C81.7329 28.4322 76.3669 18.5002 68.0799 12.2392Z" fill="#F29224"/>
<path d="M62.4536 18.8069C57.9066 15.8359 52.7226 14.2659 47.4626 14.2659C42.0486 14.2659 36.7326 15.9239 32.0896 19.0599C31.7466 19.2919 31.6566 19.7579 31.8886 20.1009C32.0336 20.3149 32.2696 20.4309 32.5106 20.4309C32.6546 20.4309 32.8006 20.3899 32.9296 20.3029C37.3236 17.3339 42.3486 15.7649 47.4626 15.7649C52.4306 15.7649 57.3306 17.2509 61.6336 20.0619C61.9806 20.2879 62.4446 20.1909 62.6716 19.8439C62.8976 19.4969 62.8006 19.0329 62.4536 18.8069Z" fill="#F29224"/>
</svg>
