<svg width="154" height="155" viewBox="0 0 154 155" fill="none" xmlns="http://www.w3.org/2000/svg">
<path d="M54.9414 71.2541C54.9414 76.3351 59.0594 80.4531 64.1404 80.4531C69.2174 80.4531 73.3344 76.3351 73.3344 71.2541C73.3344 66.1721 69.2174 62.0551 64.1404 62.0551C59.0594 62.0551 54.9414 66.1721 54.9414 71.2541Z" fill="#F7B785"/>
<path d="M60.5977 107.225C60.5977 116.069 67.7677 123.239 76.6117 123.239C85.4597 123.239 92.6297 116.069 92.6297 107.225C92.6297 98.3808 85.4597 91.2058 76.6117 91.2058C67.7677 91.2058 60.5977 98.3808 60.5977 107.225Z" fill="#F7B785"/>
<path d="M135.044 89.481C134.946 89.481 134.845 89.463 134.748 89.425L110.891 80.006C110.817 79.977 110.749 79.939 110.687 79.889L90.0188 63.59L78.4178 62.211C77.9758 62.159 77.6598 61.757 77.7128 61.315C77.7638 60.872 78.1548 60.561 78.6088 60.609L90.4358 62.016C90.5838 62.033 90.7238 62.091 90.8398 62.184L111.593 78.549L135.34 87.923C135.755 88.087 135.959 88.557 135.795 88.971C135.669 89.288 135.365 89.481 135.044 89.481Z" fill="#3B6858"/>
<path d="M92.9422 81.8643C92.8592 81.8643 92.7742 81.8533 92.6902 81.8233L79.3922 77.4573L71.5122 77.6563C71.3532 77.6833 71.1762 77.6113 71.0362 77.5153L62.8202 71.8983C62.5052 71.6833 62.3842 71.2783 62.5302 70.9253L63.9322 67.5173C64.0412 67.2493 64.2872 67.0603 64.5762 67.0233L75.6002 65.6223C75.6892 65.6113 75.7812 65.6143 75.8672 65.6343L92.1072 69.0423C92.5432 69.1323 92.8222 69.5613 92.7322 69.9973C92.6392 70.4333 92.2162 70.7113 91.7752 70.6203L75.6692 67.2413L65.2452 68.5653L64.2702 70.9353L71.7322 76.0373L79.4902 75.8403C79.5902 75.8513 79.6762 75.8513 79.7622 75.8803L93.1942 80.2923C93.6172 80.4303 93.8482 80.8863 93.7092 81.3083C93.5972 81.6503 93.2822 81.8643 92.9422 81.8643Z" fill="#3B6858"/>
<path d="M97.3277 90.2876C97.2587 90.2876 97.1867 90.2796 97.1167 90.2606L87.5207 87.6516C87.3037 87.5916 87.1217 87.4446 87.0177 87.2456L82.4067 78.4236C82.1997 78.0286 82.3527 77.5396 82.7477 77.3336C83.1397 77.1266 83.6297 77.2796 83.8367 77.6756L88.2847 86.1846L97.5387 88.7016C97.9697 88.8186 98.2227 89.2626 98.1067 89.6926C98.0087 90.0516 97.6837 90.2876 97.3277 90.2876Z" fill="#3B6858"/>
<path d="M114.091 106.994C113.938 106.994 113.782 106.952 113.645 106.859L95.6954 94.9091C95.3244 94.6621 95.2244 94.1621 95.4714 93.7891C95.7174 93.4191 96.2164 93.3151 96.5894 93.5661L114.539 105.516C114.91 105.763 115.01 106.265 114.763 106.635C114.608 106.869 114.352 106.994 114.091 106.994Z" fill="#3B6858"/>
<path d="M109.785 114.74C109.529 114.74 109.278 114.62 109.121 114.394L91.2805 88.7362C91.0275 88.3692 91.1165 87.8672 91.4835 87.6132C91.8505 87.3582 92.3515 87.4482 92.6065 87.8132L110.447 113.472C110.701 113.839 110.611 114.342 110.244 114.595C110.104 114.694 109.943 114.74 109.785 114.74Z" fill="#3B6858"/>
<path d="M81.3183 68.2314C81.0193 68.2314 80.7313 68.0654 80.5913 67.7774L76.9813 60.3604L71.8563 53.6814C71.7703 53.5694 71.7153 53.4364 71.6973 53.2954L70.4933 44.0744C70.4353 43.6324 70.7463 43.2274 71.1883 43.1694C71.6193 43.1184 72.0343 43.4214 72.0923 43.8654L73.2683 52.8734L78.3473 59.5174L82.0423 67.0714C82.2373 67.4734 82.0713 67.9554 81.6703 68.1504C81.5563 68.2064 81.4363 68.2314 81.3183 68.2314Z" fill="#3B6858"/>
<path d="M73.2996 104.316C73.2206 104.316 73.1406 104.304 73.0606 104.279L55.6216 98.8669C55.4946 98.8279 55.3776 98.7569 55.2846 98.6599L46.3476 89.5289L43.3496 87.9409L37.2576 89.8479C36.9786 89.9339 36.6736 89.8649 36.4616 89.6639L32.6526 86.0539C32.3526 85.7679 32.3156 85.3049 32.5666 84.9769L37.7776 78.1619C37.9026 77.9979 38.0866 77.8869 38.2906 77.8549L48.3146 76.2509C48.5346 76.2199 48.7606 76.2739 48.9376 76.4109L58.9626 84.2299C59.3146 84.5039 59.3776 85.0119 59.1016 85.3629C58.8296 85.7139 58.3206 85.7759 57.9706 85.5039L48.2226 77.9009L38.8636 79.3989L34.2886 85.3799L37.2276 88.1669L43.1886 86.3009C43.3956 86.2369 43.6186 86.2579 43.8066 86.3569L47.2146 88.1609C47.2886 88.2019 47.3556 88.2519 47.4146 88.3119L56.2956 97.3869L73.5386 102.739C73.9646 102.871 74.2026 103.322 74.0706 103.749C73.9626 104.094 73.6436 104.316 73.2996 104.316Z" fill="#3B6858"/>
<path d="M43.4307 78.2559C43.1707 78.2559 42.9167 78.1319 42.7607 77.9009L25.3227 52.0419L19.6307 38.4699C19.5777 38.3429 19.5567 38.2019 19.5747 38.0649L20.0537 34.0379C20.1047 33.5979 20.4867 33.2909 20.9387 33.3299L26.8737 33.9489C27.1437 33.9779 27.3807 34.1399 27.5067 34.3809L33.5227 46.0059L38.8117 53.2379L47.1557 60.1889C47.4987 60.4739 47.5447 60.9819 47.2597 61.3249C46.9737 61.6669 46.4647 61.7109 46.1237 61.4269L37.7037 54.4129C37.6527 54.3709 37.6067 54.3219 37.5677 54.2709L32.1537 46.8529L26.2737 35.5099L21.5617 35.0179L21.2007 38.0439L26.7367 51.2789L44.0987 76.9979C44.3487 77.3679 44.2507 77.8699 43.8817 78.1189C43.7427 78.2119 43.5857 78.2559 43.4307 78.2559Z" fill="#3B6858"/>
<path d="M54.4549 57.0063C54.2209 57.0063 53.9879 56.9063 53.8279 56.7093L45.0109 45.8823C44.9659 45.8263 44.9279 45.7643 44.8989 45.6983L40.4869 35.6803C40.4589 35.6183 40.4399 35.5523 40.4289 35.4863L39.0849 27.4093L34.5609 24.3933L33.0419 26.1903L34.0099 36.2763L38.1969 52.1863C38.3099 52.6163 38.0519 53.0583 37.6209 53.1703C37.1949 53.2943 36.7489 53.0273 36.6359 52.5953L32.4259 36.5583L31.4019 26.0053C31.3819 25.7883 31.4499 25.5723 31.5899 25.4063L33.7929 22.8013C34.0599 22.4883 34.5199 22.4273 34.8569 22.6513L40.2709 26.2613C40.4559 26.3843 40.5829 26.5793 40.6189 26.7993L42.0049 35.1223L46.3319 44.9483L55.0799 55.6903C55.3609 56.0363 55.3089 56.5433 54.9629 56.8253C54.8139 56.9463 54.6329 57.0063 54.4549 57.0063Z" fill="#3B6858"/>
<path d="M51.2582 52.6533H51.2462C50.8002 52.6473 50.4452 52.2783 50.4512 51.8353L50.6412 39.5473C50.6452 39.2243 50.8402 38.9373 51.1372 38.8143L63.1662 33.8023C63.4222 33.6923 63.7162 33.7273 63.9452 33.8893L72.9642 40.3073C73.2672 40.5233 73.3832 40.9193 73.2452 41.2643L72.0412 44.2713C71.9192 44.5773 71.6232 44.7783 71.2932 44.7783H62.8732C62.6332 44.7783 62.4062 44.6723 62.2522 44.4883L59.2462 40.8783C58.9612 40.5353 59.0082 40.0253 59.3502 39.7413C59.6902 39.4563 60.1992 39.5003 60.4872 39.8443L63.2512 43.1653H70.7472L71.5112 41.2553L63.3732 35.4643L52.2462 40.1013L52.0652 51.8583C52.0582 52.3003 51.6982 52.6533 51.2582 52.6533Z" fill="#3B6858"/>
<path d="M62.0718 55.4009C61.6738 55.4009 61.3268 55.1059 61.2728 54.7009L60.0698 45.6819C60.0318 45.4019 60.1438 45.1219 60.3648 44.9459L62.3708 43.3409C62.7218 43.0609 63.2288 43.1169 63.5058 43.4659C63.7848 43.8139 63.7278 44.3209 63.3798 44.5989L61.7288 45.9209L62.8728 54.4879C62.9318 54.9299 62.6208 55.3359 62.1798 55.3939C62.1428 55.3999 62.1078 55.4009 62.0718 55.4009Z" fill="#3B6858"/>
<path d="M72.4963 41.7681C72.3713 41.7681 72.2463 41.7391 72.1273 41.6791C71.7313 41.4751 71.5753 40.9881 71.7803 40.5911L75.0673 34.2091L74.3763 29.5451L72.4323 28.8991L67.1603 36.9941C66.9183 37.3671 66.4183 37.4751 66.0443 37.2291C65.6713 36.9861 65.5653 36.4871 65.8083 36.1141L71.4193 27.4961C71.6213 27.1891 72.0023 27.0601 72.3503 27.1701L75.3573 28.1701C75.6453 28.2661 75.8553 28.5171 75.9003 28.8181L76.7023 34.2311C76.7273 34.3971 76.6993 34.5681 76.6213 34.7191L73.2143 41.3321C73.0713 41.6101 72.7883 41.7681 72.4963 41.7681Z" fill="#3B6858"/>
<path d="M84.3264 129.977C84.0414 129.977 83.7664 129.827 83.6194 129.56L68.9834 103.097C68.7684 102.707 68.9094 102.217 69.2994 102.001C69.6874 101.785 70.1794 101.926 70.3964 102.317L85.0314 128.781C85.2464 129.17 85.1064 129.661 84.7164 129.877C84.5914 129.944 84.4584 129.977 84.3264 129.977Z" fill="#3B6858"/>
<path d="M122.821 136.603C110.108 146.793 94.06 152.9 76.618 152.9C35.513 152.9 2.071 119.068 2.071 77.4832V2.06924H76.618C117.724 2.06924 151.166 35.8992 151.166 77.4832C151.166 85.3702 149.957 92.9772 147.727 100.127H149.891C152.06 92.9612 153.236 85.3602 153.236 77.4832C153.236 34.7592 118.865 0.000244141 76.618 0.000244141H0V77.4832C0 120.21 34.371 154.969 76.618 154.969C93.959 154.969 109.967 149.104 122.821 139.246V136.603Z" fill="#3B6858"/>
<path d="M153.386 98.8381C153.386 101.766 151.011 104.141 148.083 104.141C145.155 104.141 142.781 101.766 142.781 98.8381C142.781 95.9101 145.155 93.5361 148.083 93.5361C151.011 93.5361 153.386 95.9101 153.386 98.8381Z" fill="#3B6858"/>
<path d="M126.871 136.843C126.871 139.771 124.496 142.146 121.568 142.146C118.64 142.146 116.266 139.771 116.266 136.843C116.266 133.915 118.64 131.54 121.568 131.54C124.496 131.54 126.871 133.915 126.871 136.843Z" fill="#3B6858"/>
</svg>
