<svg width="154" height="155" viewBox="0 0 154 155" fill="none" xmlns="http://www.w3.org/2000/svg">
<path d="M111.428 87.8366C111.428 100.398 101.247 110.578 88.6873 110.578C76.1263 110.578 65.9453 100.398 65.9453 87.8366C65.9453 75.2756 76.1263 65.0956 88.6873 65.0956C101.247 65.0956 111.428 75.2756 111.428 87.8366Z" fill="#F7B785"/>
<path d="M47.3589 134.022H47.3169C46.8719 133.999 46.5289 133.619 46.5519 133.175L47.7419 109.99C47.7489 109.862 47.7839 109.739 47.8479 109.629L62.7089 83.775C62.9309 83.389 63.4229 83.258 63.8109 83.476C64.1969 83.7 64.3299 84.192 64.1079 84.578L49.3439 110.266L48.1639 133.256C48.1409 133.688 47.7849 134.022 47.3589 134.022Z" fill="#3B6858"/>
<path d="M53.0769 92.3179H53.0519C52.6069 92.3039 52.2569 91.9319 52.2699 91.4859L52.7319 76.5559C52.7449 76.1129 53.0859 75.8079 53.5629 75.7749C54.0079 75.7889 54.3579 76.1609 54.3449 76.6069L53.8839 91.5359C53.8699 91.9729 53.5109 92.3179 53.0769 92.3179Z" fill="#3B6858"/>
<path d="M48.0224 85.6606C47.6034 85.6606 47.2494 85.3366 47.2184 84.9116L46.5314 75.4916C46.4994 75.0476 46.8324 74.6616 47.2774 74.6286C47.7164 74.5996 48.1094 74.9296 48.1414 75.3756L48.8284 84.7956C48.8614 85.2396 48.5274 85.6256 48.0824 85.6586C48.0624 85.6606 48.0424 85.6606 48.0224 85.6606Z" fill="#3B6858"/>
<path d="M43.6569 78.7651C43.2639 78.7651 42.9199 78.4781 42.8599 78.0781L42.1729 73.4861C42.1079 73.0441 42.4099 72.6351 42.8509 72.5671C43.2939 72.5011 43.7029 72.8071 43.7689 73.2461L44.4559 77.8391C44.5219 78.2811 44.2189 78.6901 43.7779 78.7581C43.7369 78.7631 43.6969 78.7651 43.6569 78.7651Z" fill="#3B6858"/>
<mask id="mask0_149_2798" style="mask-type:luminance" maskUnits="userSpaceOnUse" x="0" y="16" width="123" height="123">
<path d="M0.652344 77.4825C0.652344 111.083 27.9522 138.382 61.5522 138.382C95.2522 138.382 122.452 111.083 122.452 77.4825C122.452 43.7825 95.2522 16.5825 61.5522 16.5825C27.9522 16.5825 0.652344 43.7825 0.652344 77.4825Z" fill="white"/>
</mask>
<g mask="url(#mask0_149_2798)">
<path d="M76.7804 134.618C76.6844 134.618 76.5884 134.602 76.4934 134.566C76.0784 134.408 75.8674 133.942 76.0254 133.526L95.5544 82.0357L92.3704 68.1387L52.6154 4.05667C52.3804 3.67868 52.4974 3.18068 52.8754 2.94667C53.2554 2.70967 53.7524 2.82867 53.9874 3.20767L93.8124 67.4037C93.8584 67.4787 93.8934 67.5617 93.9124 67.6487L97.1814 81.9147C97.2174 82.0687 97.2064 82.2307 97.1504 82.3797L77.5354 134.097C77.4124 134.419 77.1054 134.618 76.7804 134.618Z" fill="#3B6858"/>
<path d="M58.9479 92.4121C58.5199 92.4121 58.1629 92.0741 58.1429 91.6421L57.8479 85.1021C57.8429 84.9961 57.8589 84.8901 57.8949 84.7891L66.5129 61.0161C66.6419 60.6631 66.9899 60.4491 67.3719 60.4911L83.4249 62.4981L84.3299 60.5091L69.0239 53.7061L54.3889 45.3481C54.2729 45.2821 54.1749 45.1871 54.1049 45.0731L32.1099 9.70611C31.8749 9.32811 31.9909 8.83011 32.3689 8.59511C32.7489 8.36011 33.2469 8.47711 33.4799 8.85311L55.3679 44.0471L69.7519 52.2691L85.7299 59.3651C85.9269 59.4511 86.0799 59.6131 86.1559 59.8161C86.2329 60.0161 86.2259 60.2411 86.1359 60.4351L84.6469 63.7061C84.5019 64.0281 84.1689 64.2221 83.8129 64.1731L67.8109 62.1721L59.4669 85.1891L59.7549 91.5691C59.7749 92.0151 59.4299 92.3911 58.9859 92.4121H58.9479Z" fill="#3B6858"/>
<path d="M82.2538 50.9702C81.8118 50.9702 81.4518 50.6152 81.4468 50.1732L81.2168 29.9602L83.5158 5.98421C83.5578 5.54221 83.9528 5.19022 84.3968 5.25821C84.8408 5.30122 85.1658 5.69421 85.1228 6.13821L82.8268 30.0272L83.0608 50.1542C83.0658 50.5992 82.7078 50.9662 82.2638 50.9702H82.2538Z" fill="#3B6858"/>
<path d="M91.2105 96.3389C90.8095 96.3389 90.4615 96.0399 90.4105 95.6319C90.3555 95.1909 90.6695 94.7869 91.1115 94.7319L93.4505 94.4379L100.018 81.9609L95.6995 56.0399C95.6815 55.9319 95.6865 55.8219 95.7125 55.7149L106.738 10.6929C106.843 10.2599 107.281 9.99786 107.713 10.0999C108.147 10.2069 108.411 10.6429 108.305 11.0749L97.3185 55.9379L101.654 81.9629C101.683 82.1359 101.654 82.3159 101.572 82.4719L94.6825 95.5629C94.5605 95.7969 94.3305 95.9549 94.0695 95.9879L91.3115 96.3329C91.2785 96.3369 91.2445 96.3389 91.2105 96.3389Z" fill="#3B6858"/>
<path d="M55.6073 98.5215C55.2893 98.5215 54.9883 98.3325 54.8593 98.0195L52.4303 92.0555L47.5933 88.9795C47.3613 88.8305 47.2203 88.5735 47.2203 88.2975V85.3075L44.1623 83.4755C43.9653 83.3555 43.8273 83.1595 43.7843 82.9335L42.9163 78.3695L39.6643 75.3325C39.5253 75.2015 39.4363 75.0255 39.4143 74.8365L36.6873 51.8935L10.4413 22.6775C10.1433 22.3475 10.1703 21.8365 10.5023 21.5395C10.8333 21.2385 11.3433 21.2675 11.6423 21.6015L38.0583 51.0055C38.1693 51.1285 38.2393 51.2835 38.2583 51.4495L40.9813 74.3545L44.2103 77.3705C44.3363 77.4875 44.4203 77.6425 44.4533 77.8105L45.3033 82.2775L48.4413 84.1565C48.6843 84.3035 48.8333 84.5655 48.8333 84.8495V87.8545L53.5133 90.8315C53.6543 90.9225 53.7643 91.0535 53.8283 91.2085L56.3553 97.4095C56.5233 97.8225 56.3243 98.2935 55.9123 98.4615C55.8113 98.5015 55.7083 98.5215 55.6073 98.5215Z" fill="#3B6858"/>
</g>
<path d="M122.824 136.602C110.111 146.793 94.061 152.9 76.618 152.9C35.513 152.9 2.071 119.069 2.071 77.4852V2.06824H76.618C117.724 2.06824 151.166 35.9012 151.166 77.4852C151.166 85.3732 149.957 92.9792 147.727 100.131H149.89C152.061 92.9642 153.237 85.3622 153.237 77.4852C153.237 34.7592 118.865 0.000228882 76.618 0.000228882H0V77.4852C0 120.21 34.371 154.969 76.618 154.969C93.961 154.969 109.969 149.104 122.824 139.243V136.602Z" fill="#3B6858"/>
<path d="M153.386 98.8391C153.386 101.767 151.011 104.142 148.083 104.142C145.155 104.142 142.781 101.767 142.781 98.8391C142.781 95.9111 145.155 93.5371 148.083 93.5371C151.011 93.5371 153.386 95.9111 153.386 98.8391Z" fill="#3B6858"/>
<path d="M126.871 136.845C126.871 139.773 124.496 142.148 121.568 142.148C118.64 142.148 116.266 139.773 116.266 136.845C116.266 133.917 118.64 131.542 121.568 131.542C124.496 131.542 126.871 133.917 126.871 136.845Z" fill="#3B6858"/>
</svg>
