<svg width="154" height="155" viewBox="0 0 154 155" fill="none" xmlns="http://www.w3.org/2000/svg">
<path d="M86.3578 36.1897C86.3578 41.2717 82.2398 45.3887 77.1588 45.3887C72.0818 45.3887 67.9648 41.2717 67.9648 36.1897C67.9648 31.1087 72.0818 26.9907 77.1588 26.9907C82.2398 26.9907 86.3578 31.1087 86.3578 36.1897Z" fill="#F7B785"/>
<path d="M92.0222 107.647C92.0222 119.714 82.2372 129.498 70.1712 129.498C58.1042 129.498 48.3242 119.714 48.3242 107.647C48.3242 95.58 58.1042 85.795 70.1712 85.795C82.2372 85.795 92.0222 95.58 92.0222 107.647Z" fill="#F7B785"/>
<path d="M90.4381 66.4235C90.4381 74.1145 84.1991 80.3535 76.5081 80.3535C68.8171 80.3535 62.5781 74.1145 62.5781 66.4235C62.5781 58.7325 68.8171 52.4935 76.5081 52.4935C84.1991 52.4935 90.4381 58.7325 90.4381 66.4235Z" fill="#F7B785"/>
<path d="M47.7758 97.1338C47.5828 97.1338 47.3888 97.0668 47.2348 96.9258L11.3978 64.5378C11.2288 64.3858 11.1328 64.1678 11.1328 63.9398V54.7488C11.1328 54.4848 11.2628 54.2358 11.4808 54.0858L42.7248 32.4918C42.8008 32.4408 42.8858 32.3998 42.9748 32.3768L66.8238 26.0168L71.0228 20.4958C71.2938 20.1428 71.7968 20.0728 72.1528 20.3418C72.5078 20.6118 72.5768 21.1168 72.3078 21.4718L67.9408 27.2128C67.8318 27.3558 67.6788 27.4578 67.5068 27.5048L43.5268 33.8988L12.7458 55.1718V63.5808L48.3168 95.7288C48.6468 96.0288 48.6728 96.5378 48.3738 96.8678C48.2148 97.0458 47.9958 97.1338 47.7758 97.1338Z" fill="#3B6858"/>
<path d="M96.4705 105.864C96.1025 105.864 95.7715 105.611 95.6855 105.239C95.5845 104.804 95.8565 104.37 96.2915 104.27L126.838 97.2538L129.155 89.0448L111.199 49.4988L89.0505 30.0918C88.8835 29.9438 88.7835 29.7348 88.7765 29.5108L88.5455 22.8478C88.5295 22.4048 88.8785 22.0298 89.3245 22.0138C89.7715 22.0298 90.1435 22.3478 90.1585 22.7938L90.3765 29.1078L112.394 48.3988C112.48 48.4758 112.549 48.5688 112.597 48.6728L130.746 88.6458C130.825 88.8198 130.84 89.0158 130.788 89.1988L128.261 98.1528C128.181 98.4368 127.952 98.6528 127.665 98.7198L96.6515 105.845C96.5915 105.858 96.5305 105.864 96.4705 105.864Z" fill="#3B6858"/>
<path d="M98.7696 125.159C98.3696 125.159 98.0216 124.862 97.9696 124.452L94.9826 100.793C94.9676 100.671 94.9806 100.546 95.0216 100.428L109.034 59.9997C109.181 59.5787 109.638 59.3567 110.06 59.5017C110.481 59.6487 110.704 60.1077 110.558 60.5287L96.6076 100.78L99.5716 124.252C99.6276 124.694 99.3136 125.097 98.8716 125.153C98.8376 125.157 98.8036 125.159 98.7696 125.159Z" fill="#3B6858"/>
<path d="M98.155 95.2158C97.832 95.2158 97.528 95.0208 97.403 94.7028C97.241 94.2878 97.447 93.8188 97.862 93.6568L110.807 88.6148L103.639 79.1268C103.37 78.7718 103.44 78.2658 103.796 77.9958C104.154 77.7278 104.659 77.7988 104.926 78.1538L112.737 88.4928C112.89 88.6938 112.939 88.9558 112.871 89.1988C112.801 89.4428 112.623 89.6388 112.387 89.7318L98.448 95.1618C98.352 95.1988 98.252 95.2158 98.155 95.2158Z" fill="#3B6858"/>
<path d="M55.4693 90.3608C55.2243 90.3608 54.9823 90.2508 54.8233 90.0388L32.6573 60.5188C32.3903 60.1618 32.4623 59.6558 32.8193 59.3898C33.1753 59.1198 33.6803 59.1928 33.9483 59.5498L56.1143 89.0698C56.3813 89.4268 56.3093 89.9328 55.9523 90.1988C55.8083 90.3088 55.6373 90.3608 55.4693 90.3608Z" fill="#3B6858"/>
<path d="M33.5341 60.6113C33.2141 60.6113 32.9111 60.4203 32.7841 60.1043C32.6191 59.6913 32.8211 59.2203 33.2341 59.0563L53.9091 50.7873C54.3231 50.6173 54.7931 50.8223 54.9591 51.2373C55.1241 51.6503 54.9221 52.1213 54.5091 52.2853L33.8341 60.5533C33.7361 60.5943 33.6341 60.6113 33.5341 60.6113Z" fill="#3B6858"/>
<path d="M48.6943 81.0542C48.6603 81.0542 48.6263 81.0522 48.5933 81.0482C48.1513 80.9922 47.8373 80.5892 47.8923 80.1472L48.5703 74.7422L45.8283 55.3222C45.7663 54.8822 46.0743 54.4732 46.5143 54.4112C46.9623 54.3442 47.3633 54.6562 47.4263 55.0982L50.1843 74.6242C50.1933 74.6942 50.1943 74.7652 50.1863 74.8372L49.4943 80.3482C49.4433 80.7572 49.0943 81.0542 48.6943 81.0542Z" fill="#3B6858"/>
<path d="M122.821 136.604C110.108 146.794 94.06 152.901 76.618 152.901C35.513 152.901 2.071 119.07 2.071 77.4852V2.06822H76.618C117.724 2.06822 151.166 35.9022 151.166 77.4852C151.166 86.0972 149.712 94.3682 147.073 102.083H149.256C151.824 94.3482 153.236 86.0832 153.236 77.4852C153.236 34.7592 118.865 0.000213623 76.618 0.000213623H0V77.4852C0 120.21 34.371 154.97 76.618 154.97C93.959 154.97 109.967 149.105 122.821 139.245V136.604Z" fill="#3B6858"/>
<path d="M153.386 100.838C153.386 103.66 151.011 105.947 148.083 105.947C145.155 105.947 142.781 103.66 142.781 100.838C142.781 98.0163 145.155 95.7293 148.083 95.7293C151.011 95.7293 153.386 98.0163 153.386 100.838Z" fill="#3B6858"/>
<path d="M126.871 137.465C126.871 140.287 124.496 142.574 121.568 142.574C118.64 142.574 116.266 140.287 116.266 137.465C116.266 134.643 118.64 132.357 121.568 132.357C124.496 132.357 126.871 134.643 126.871 137.465Z" fill="#3B6858"/>
</svg>
