<svg width="88" height="49" viewBox="0 0 88 49" fill="none" xmlns="http://www.w3.org/2000/svg">
<path d="M86.2065 1.70435C83.8975 -0.549654 80.2625 -0.569654 77.9305 1.65435L44.5595 33.4743C44.1875 33.8283 43.6035 33.8283 43.2345 33.4743L10.0705 1.85234C7.74847 -0.361655 4.01347 -0.317653 1.74547 1.95135C0.601466 3.09535 -0.0195283 4.61735 0.000468317 6.23635C0.0184661 7.85435 0.675471 9.36034 1.84647 10.4763L39.7845 46.6523C40.9375 47.7503 42.4165 48.2993 43.8955 48.2993C45.3755 48.2993 46.8555 47.7503 48.0095 46.6513L86.1545 10.2793C87.3355 9.15335 87.9905 7.63535 88.0005 6.00335C88.0115 4.37135 87.3735 2.84535 86.2065 1.70435Z" fill="#016543"/>
</svg>
