<svg width="123" height="123" viewBox="0 0 123 123" fill="none" xmlns="http://www.w3.org/2000/svg">
<path d="M77.759 40.1058V28.2178C77.548 27.8758 77.28 27.8868 76.931 27.8458C73.521 27.4448 65.471 27.6708 62.153 28.4558C56.33 29.8338 51.832 35.6368 51.832 41.6668V51.1528H44.87V63.6408H51.832V99.1838H66.716V63.6408H76.799L77.999 51.1528H66.716V42.6278C66.716 41.4648 68.67 40.1058 69.717 40.1058H77.759ZM65.276 -0.000183105L71.568 0.78981C97.771 5.11081 118.933 26.8438 122.376 53.2288C122.565 54.6728 122.523 56.2528 122.891 57.6368C122.782 60.1778 123.039 62.7888 122.891 65.3218C119.745 119.108 52.281 142.995 15.816 102.673C-18.631 64.5808 6.758 2.97581 57.594 -0.000183105H65.276Z" fill="#016543"/>
</svg>
