<svg width="58" height="58" viewBox="0 0 58 58" fill="none" xmlns="http://www.w3.org/2000/svg">
<path d="M36.4385 18.7941V13.2231C36.3395 13.0631 36.2145 13.0681 36.0505 13.0491C34.4525 12.8611 30.6805 12.9671 29.1255 13.3351C26.3965 13.9801 24.2885 16.7001 24.2885 19.5261V23.9711H21.0265V29.8231H24.2885V46.4791H31.2635V29.8231H35.9885L36.5515 23.9711H31.2635V19.9761C31.2635 19.4311 32.1795 18.7941 32.6695 18.7941H36.4385ZM30.5885 8.01086e-05L33.5375 0.370079C45.8165 2.39508 55.7335 12.5801 57.3465 24.9431C57.4345 25.6201 57.4155 26.3611 57.5875 27.0091C57.5365 28.2001 57.6575 29.4231 57.5875 30.6111C56.1135 55.8151 24.4995 67.0091 7.41153 48.1131C-8.73047 30.2631 3.16653 1.39508 26.9885 8.01086e-05H30.5885Z" fill="white"/>
</svg>
