<svg width="123" height="123" viewBox="0 0 123 123" fill="none" xmlns="http://www.w3.org/2000/svg">
<path d="M122.622 61.3111C122.622 95.1721 95.172 122.622 61.311 122.622C27.45 122.622 0 95.1721 0 61.3111C0 27.4501 27.45 6.86646e-05 61.311 6.86646e-05C95.172 6.86646e-05 122.622 27.4501 122.622 61.3111Z" fill="#016543"/>
<path d="M49.6309 34.6081C38.9369 35.0201 34.8219 38.6181 34.3999 49.4711C34.0889 57.4561 34.1219 65.9511 34.5319 73.9161C35.0299 83.5971 38.6229 87.4531 48.4349 88.0581C55.7239 88.5081 63.9259 88.2921 71.2489 88.0481C76.4139 87.8751 81.2369 88.0301 84.9069 83.7701C88.1019 80.0621 87.8339 75.4191 87.9749 70.8391C88.1939 63.7041 88.3829 55.9511 87.9789 48.8381C87.3649 38.0581 82.8699 34.9241 72.4129 34.5651C65.1389 34.3161 56.9029 34.3281 49.6309 34.6081ZM71.0619 94.0671C64.6679 94.2491 57.7179 94.2451 51.3239 94.0671C44.7489 93.8831 38.2029 93.2871 33.4419 88.1831C29.0859 83.5121 28.7339 78.3091 28.5149 72.2461C28.2369 64.5611 28.0339 55.8431 28.5039 48.1921C29.2739 35.6681 35.4809 29.4201 48.0499 28.6791C55.5299 28.2391 63.8659 28.4451 71.3769 28.6901C72.9489 28.7411 74.5539 28.6751 76.1229 28.8141C87.6609 29.8341 93.3929 37.0591 93.8809 48.3201C94.2469 56.7541 93.5979 65.4521 93.8749 73.9131C93.6809 79.8771 92.1739 85.4521 87.5349 89.4641C82.9009 93.4711 76.9019 93.9001 71.0619 94.0671Z" fill="white"/>
<path d="M59.8846 50.4731C52.3066 51.2081 48.0086 59.7361 51.5136 66.4321C55.0456 73.1811 64.5966 74.2561 69.5196 68.4091C75.9416 60.7831 69.8396 49.5081 59.8846 50.4731ZM59.2446 44.5881C76.0706 43.1001 84.7036 63.4131 72.0196 74.2311C61.8386 82.9131 45.8336 76.3581 44.4046 63.1641C43.4356 54.2201 50.1236 45.3951 59.2446 44.5881Z" fill="white"/>
<path d="M77.8212 39.9751C83.4582 39.0251 84.3042 47.0391 79.2962 47.7161C74.0202 48.4291 73.2772 40.7411 77.8212 39.9751Z" fill="white"/>
</svg>
