<svg width="58" height="58" viewBox="0 0 58 58" fill="none" xmlns="http://www.w3.org/2000/svg">
<path d="M18.741 5.4163C9.37895 5.7773 5.77695 8.9263 5.40695 18.4283C5.13495 25.4183 5.16395 32.8543 5.52295 39.8273C5.95895 48.3023 9.10395 51.6783 17.694 52.2083C24.075 52.6023 31.255 52.4133 37.666 52.1993C42.188 52.0483 46.41 52.1833 49.623 48.4543C52.42 45.2083 52.185 41.1433 52.308 37.1333C52.5 30.8873 52.666 24.1003 52.312 17.8733C51.775 8.4363 47.839 5.6923 38.685 5.3783C32.317 5.1603 25.107 5.1713 18.741 5.4163ZM37.502 57.4683C31.905 57.6273 25.82 57.6243 20.223 57.4683C14.467 57.3073 8.73595 56.7853 4.56895 52.3173C0.754954 48.2283 0.446953 43.6733 0.254954 38.3663C0.0119539 31.6383 -0.166046 24.0063 0.245953 17.3083C0.919955 6.3443 6.35395 0.8743 17.357 0.226299C23.905 -0.159701 31.203 0.0202985 37.778 0.235298C39.154 0.280298 40.56 0.2223 41.933 0.344299C52.034 1.2373 57.052 7.5623 57.479 17.4203C57.799 24.8033 57.231 32.4173 57.473 39.8253C57.304 45.0463 55.985 49.9263 51.923 53.4383C47.866 56.9463 42.615 57.3223 37.502 57.4683Z" fill="white"/>
<path d="M27.7169 19.3056C21.0829 19.9486 17.3209 27.4146 20.3889 33.2766C23.4809 39.1846 31.8419 40.1256 36.1519 35.0066C41.7729 28.3316 36.4319 18.4606 27.7169 19.3056ZM27.1569 14.1536C41.8859 12.8506 49.4449 30.6336 38.3399 40.1036C29.4279 47.7046 15.4159 41.9666 14.1649 30.4156C13.3169 22.5856 19.1719 14.8606 27.1569 14.1536Z" fill="white"/>
<path d="M43.4191 10.1143C48.3541 9.28234 49.0951 16.2983 44.7101 16.8913C40.0911 17.5153 39.4411 10.7843 43.4191 10.1143Z" fill="white"/>
</svg>
