<svg width="154" height="155" viewBox="0 0 154 155" fill="none" xmlns="http://www.w3.org/2000/svg">
<path d="M111.429 87.8371C111.429 100.395 101.247 110.577 88.6893 110.577C76.1263 110.577 65.9453 100.395 65.9453 87.8371C65.9453 75.2791 76.1263 65.0971 88.6893 65.0971C101.247 65.0971 111.429 75.2791 111.429 87.8371Z" fill="#F18F8D"/>
<path d="M47.3594 133.213L48.5474 110.031L63.4084 84.1734" stroke="#3B6858" stroke-width="1.612" stroke-linecap="round" stroke-linejoin="round"/>
<path d="M53.5391 76.5812L53.0781 91.5112" stroke="#3B6858" stroke-width="1.612" stroke-linecap="round" stroke-linejoin="round"/>
<path d="M47.3359 75.4326L48.0269 84.8496" stroke="#3B6858" stroke-width="1.612" stroke-linecap="round" stroke-linejoin="round"/>
<path d="M42.9727 73.3654L43.6637 77.9614" stroke="#3B6858" stroke-width="1.612" stroke-linecap="round" stroke-linejoin="round"/>
<mask id="mask0_149_3305" style="mask-type:luminance" maskUnits="userSpaceOnUse" x="0" y="16" width="123" height="123">
<path d="M0.652344 77.4166C0.652344 111.117 27.9522 138.417 61.5522 138.417C95.2522 138.417 122.452 111.117 122.452 77.4166C122.452 43.8166 95.2522 16.5166 61.5522 16.5166C27.9522 16.5166 0.652344 43.8166 0.652344 77.4166Z" fill="white"/>
</mask>
<g mask="url(#mask0_149_3305)">
<path d="M53.3047 3.63367L93.1297 67.8287L96.3987 82.0957L76.7817 133.806" stroke="#3B6858" stroke-width="1.612" stroke-linecap="round" stroke-linejoin="round"/>
<path d="M32.7969 9.28047L54.7909 44.6475L69.3519 52.9685L85.4009 60.1025L83.9129 63.3715L67.2709 61.2905L58.6549 85.0665L58.9489 91.6055" stroke="#3B6858" stroke-width="1.612" stroke-linecap="round" stroke-linejoin="round"/>
<path d="M84.3214 6.06155L82.0234 29.9536L82.2534 50.1646" stroke="#3B6858" stroke-width="1.612" stroke-linecap="round" stroke-linejoin="round"/>
<path d="M107.522 10.8852L96.4969 55.9092L100.858 82.0932L93.9689 95.1862L91.2109 95.5312" stroke="#3B6858" stroke-width="1.612" stroke-linecap="round" stroke-linejoin="round"/>
<path d="M11.043 22.1404L37.458 51.5444L40.216 74.7444L43.661 77.9584L44.582 82.7854L48.026 84.8524V88.2974L53.078 91.5124L55.606 97.7144" stroke="#3B6858" stroke-width="1.612" stroke-linecap="round" stroke-linejoin="round"/>
</g>
<path d="M122.824 136.6C110.111 146.79 94.062 152.898 76.62 152.898C35.514 152.898 2.072 119.068 2.072 77.4842V2.07219H76.62C117.725 2.07219 151.167 35.9022 151.167 77.4842C151.167 85.3732 149.959 92.9792 147.728 100.13H149.893C152.063 92.9632 153.239 85.3612 153.239 77.4842C153.239 34.7592 118.868 0.000183105 76.62 0.000183105H0V77.4842C0 120.21 34.371 154.971 76.62 154.971C93.961 154.971 109.969 149.106 122.824 139.246V136.6Z" fill="#3B6858"/>
<path d="M153.387 98.8395C153.387 101.769 151.011 104.145 148.082 104.145C145.153 104.145 142.781 101.769 142.781 98.8395C142.781 95.9105 145.153 93.5345 148.082 93.5345C151.011 93.5345 153.387 95.9105 153.387 98.8395Z" fill="#3B6858"/>
<path d="M126.872 136.844C126.872 139.773 124.496 142.149 121.567 142.149C118.638 142.149 116.266 139.773 116.266 136.844C116.266 133.915 118.638 131.539 121.567 131.539C124.496 131.539 126.872 133.915 126.872 136.844Z" fill="#3B6858"/>
</svg>
