<svg width="46" height="77" viewBox="0 0 46 77" fill="none" xmlns="http://www.w3.org/2000/svg">
<path d="M30.9779 34.3259C27.2989 41.3209 22.3389 48.1229 20.8369 55.8659C19.4409 63.0769 21.6589 69.8419 24.3089 76.5699C9.46992 66.6359 9.83292 50.6949 17.4199 36.8339C21.3099 29.7289 27.6619 22.5179 28.3879 14.3519C28.8419 9.27295 26.6749 4.49195 24.3089 -5.34058e-05C38.7669 7.84895 37.4309 22.0679 30.9779 34.3259Z" fill="#E20613"/>
<path d="M8.75659 7.78993C10.3826 10.9549 11.8706 14.3159 11.5256 17.8659C10.9656 23.5749 6.47859 28.5769 3.71359 33.5189C-1.68241 43.1589 -2.03141 54.3139 8.29759 61.3779C6.47859 56.6519 4.96759 51.8989 5.99159 46.8649C7.08459 41.4549 10.5986 36.7329 13.2166 31.8649C17.8046 23.3359 18.8236 13.3929 8.75659 7.78993Z" fill="#E20613"/>
<path d="M38.4558 21.0569C39.9898 24.2769 41.3768 27.6929 40.9268 31.2299C40.2058 36.9159 35.5718 41.7469 32.6598 46.5879C26.9878 56.0209 26.3128 67.1589 36.4308 74.5989C34.7538 69.8089 33.3808 65.0049 34.5478 60.0079C35.8008 54.6439 39.4528 50.0509 42.2078 45.2839C47.0448 36.9299 48.3528 27.0319 38.4558 21.0569Z" fill="#E20613"/>
</svg>
