<svg width="154" height="155" viewBox="0 0 154 155" fill="none" xmlns="http://www.w3.org/2000/svg">
<path d="M62.9477 32.8645C62.9477 37.9445 58.8307 42.0605 53.7517 42.0605C48.6717 42.0605 44.5547 37.9445 44.5547 32.8645C44.5547 27.7845 48.6717 23.6685 53.7517 23.6685C58.8307 23.6685 62.9477 27.7845 62.9477 32.8645Z" fill="#F18F8D"/>
<path d="M110.112 40.7913C110.112 45.8713 105.995 49.9873 100.916 49.9873C95.8357 49.9873 91.7188 45.8713 91.7188 40.7913C91.7188 35.7113 95.8357 31.5953 100.916 31.5953C105.995 31.5953 110.112 35.7113 110.112 40.7913Z" fill="#F18F8D"/>
<path d="M92.0222 107.646C92.0222 119.711 82.2412 129.497 70.1712 129.497C58.1052 129.497 48.3242 119.711 48.3242 107.646C48.3242 95.5811 58.1052 85.7951 70.1712 85.7951C82.2412 85.7951 92.0222 95.5811 92.0222 107.646Z" fill="#F18F8D"/>
<path d="M71.6654 20.9831L67.2994 26.7251L43.1824 33.1591L11.9414 54.7521V63.9391L47.7744 96.3271" stroke="#3B6858" stroke-width="1.612" stroke-linecap="round" stroke-linejoin="round"/>
<path d="M89.3516 22.8197L89.5816 29.4837L111.862 49.0047L130.01 88.9767L127.482 97.9337L96.4706 105.053" stroke="#3B6858" stroke-width="1.612" stroke-linecap="round" stroke-linejoin="round"/>
<path d="M109.794 60.2626L95.7812 100.691L98.7692 124.352" stroke="#3B6858" stroke-width="1.612" stroke-linecap="round" stroke-linejoin="round"/>
<path d="M104.281 78.6392L112.091 88.9772L98.1562 94.4072" stroke="#3B6858" stroke-width="1.612" stroke-linecap="round" stroke-linejoin="round"/>
<path d="M33.3047 60.0328L55.4737 89.5518" stroke="#3B6858" stroke-width="1.612" stroke-linecap="round" stroke-linejoin="round"/>
<path d="M33.5312 59.8027L54.2033 51.5317" stroke="#3B6858" stroke-width="1.612" stroke-linecap="round" stroke-linejoin="round"/>
<path d="M46.625 55.2091L49.383 74.7351L48.693 80.2471" stroke="#3B6858" stroke-width="1.612" stroke-linecap="round" stroke-linejoin="round"/>
<path d="M122.824 136.599C110.111 146.789 94.062 152.898 76.62 152.898C35.514 152.898 2.072 119.067 2.072 77.4837V2.07076H76.62C117.725 2.07076 151.166 35.9018 151.166 77.4837C151.166 86.0947 149.713 94.3638 147.074 102.078H149.258C151.825 94.3447 153.238 86.0807 153.238 77.4837C153.238 34.7588 118.867 -0.000244141 76.62 -0.000244141H0V77.4837C0 120.21 34.371 154.969 76.62 154.969C93.961 154.969 109.969 149.105 122.824 139.245V136.599Z" fill="#3B6858"/>
<path d="M153.383 100.837C153.383 103.66 151.007 105.949 148.078 105.949C145.149 105.949 142.777 103.66 142.777 100.837C142.777 98.0142 145.149 95.7252 148.078 95.7252C151.007 95.7252 153.383 98.0142 153.383 100.837Z" fill="#3B6858"/>
<path d="M126.868 137.464C126.868 140.287 124.492 142.576 121.563 142.576C118.634 142.576 116.262 140.287 116.262 137.464C116.262 134.641 118.634 132.352 121.563 132.352C124.492 132.352 126.868 134.641 126.868 137.464Z" fill="#3B6858"/>
</svg>
