<svg width="154" height="155" viewBox="0 0 154 155" fill="none" xmlns="http://www.w3.org/2000/svg">
<path d="M54.9414 71.2557C54.9414 76.3357 59.0584 80.4517 64.1374 80.4517C69.2174 80.4517 73.3344 76.3357 73.3344 71.2557C73.3344 66.1767 69.2174 62.0597 64.1374 62.0597C59.0584 62.0597 54.9414 66.1767 54.9414 71.2557Z" fill="#F18F8D"/>
<path d="M135.044 88.6758L111.19 79.2538L90.3377 62.8138L78.5117 61.4138" stroke="#3B6858" stroke-width="1.612" stroke-linecap="round" stroke-linejoin="round"/>
<path d="M91.9443 69.8321L75.7073 66.4241L64.6823 67.8291L63.2773 71.2371L71.4973 76.8501L79.5153 76.6471L92.9483 81.0601" stroke="#3B6858" stroke-width="1.612" stroke-linecap="round" stroke-linejoin="round"/>
<path d="M83.1211 78.0514L87.7311 86.8704L97.3281 89.4814" stroke="#3B6858" stroke-width="1.612" stroke-linecap="round" stroke-linejoin="round"/>
<path d="M96.1445 94.2374L114.096 106.192" stroke="#3B6858" stroke-width="1.612" stroke-linecap="round" stroke-linejoin="round"/>
<path d="M109.785 113.934L91.9453 88.2751" stroke="#3B6858" stroke-width="1.612" stroke-linecap="round" stroke-linejoin="round"/>
<path d="M81.318 67.4263L77.708 60.0083L72.499 53.1923L71.293 43.9723" stroke="#3B6858" stroke-width="1.612" stroke-linecap="round" stroke-linejoin="round"/>
<path d="M73.299 103.51L55.86 98.0993L46.838 88.8753L43.43 87.0703L37.016 89.0783L33.207 85.4683L38.42 78.6523L48.441 77.0503L58.466 84.8693" stroke="#3B6858" stroke-width="1.612" stroke-linecap="round" stroke-linejoin="round"/>
<path d="M43.4319 77.4497L25.9929 51.5877L20.3789 38.1587L20.8579 34.1347L26.7939 34.7517L32.8079 46.3797L38.2189 53.7937L46.6419 60.8117" stroke="#3B6858" stroke-width="1.612" stroke-linecap="round" stroke-linejoin="round"/>
<path d="M37.4161 52.3917L33.2071 36.3527L32.2031 25.9317L34.4091 23.3247L39.8201 26.9307L41.2241 35.3527L45.6361 45.3737L54.4551 56.2007" stroke="#3B6858" stroke-width="1.612" stroke-linecap="round" stroke-linejoin="round"/>
<path d="M51.2578 51.8486L51.4468 39.5626L63.4748 34.5526L72.4968 40.9676L71.2948 43.9736H62.8768L59.8688 40.3636" stroke="#3B6858" stroke-width="1.612" stroke-linecap="round" stroke-linejoin="round"/>
<path d="M62.8741 43.9717L60.8711 45.5747L62.0731 54.5957" stroke="#3B6858" stroke-width="1.612" stroke-linecap="round" stroke-linejoin="round"/>
<path d="M66.4844 36.5548L72.0984 27.9338L75.1054 28.9378L75.9064 34.3488L72.4984 40.9668" stroke="#3B6858" stroke-width="1.612" stroke-linecap="round" stroke-linejoin="round"/>
<path d="M69.6914 102.708L84.3264 129.169" stroke="#3B6858" stroke-width="1.612" stroke-linecap="round" stroke-linejoin="round"/>
<path d="M122.824 136.6C110.111 146.79 94.061 152.898 76.619 152.898C35.514 152.898 2.071 119.068 2.071 77.4852V2.07323H76.619C117.724 2.07323 151.167 35.9032 151.167 77.4852C151.167 85.3732 149.958 92.9802 147.727 100.132H149.892C152.062 92.9642 153.238 85.3622 153.238 77.4852C153.238 34.7592 118.868 0.000213623 76.619 0.000213623H0V77.4852C0 120.21 34.371 154.97 76.619 154.97C93.961 154.97 109.969 149.106 122.824 139.246V136.6Z" fill="#3B6858"/>
<path d="M153.387 98.839C153.387 101.768 151.011 104.144 148.082 104.144C145.153 104.144 142.781 101.768 142.781 98.839C142.781 95.91 145.153 93.534 148.082 93.534C151.011 93.534 153.387 95.91 153.387 98.839Z" fill="#3B6858"/>
<path d="M128.746 137.235C128.746 140.164 126.37 142.54 123.441 142.54C120.512 142.54 118.141 140.164 118.141 137.235C118.141 134.306 120.512 131.93 123.441 131.93C126.37 131.93 128.746 134.306 128.746 137.235Z" fill="#3B6858"/>
</svg>
