<svg width="126" height="49" viewBox="0 0 126 49" fill="none" xmlns="http://www.w3.org/2000/svg">
<path d="M49.2256 47.6094H38.5205V43.5H38.3438C37.2108 45.2269 35.8964 46.4741 34.3955 47.2441C32.8925 48.0121 31.0698 48.3984 28.9258 48.3984C26.975 48.3984 25.0941 48.0234 23.2803 47.2725C21.4673 46.5215 19.8674 45.4338 18.4834 44.0068C17.0974 42.5809 15.9947 40.8551 15.1777 38.8281C14.3578 36.8002 13.9482 34.5488 13.9482 31.96C13.9483 29.3711 14.3475 27.063 15.1475 25.0361C15.9475 23.0113 17.0183 21.2863 18.3643 19.8584C19.7083 18.4324 21.2885 17.3438 23.1025 16.5928C24.9154 15.8419 26.8541 15.4668 28.9209 15.4668C32.9359 15.4668 36.0191 16.9128 38.1631 19.8008H38.3369L38.3438 19.7998C38.3438 19.7998 41.4376 15.3271 49.2256 15.3271V47.6094ZM125.067 47.6094H114.362V43.5H114.187C113.054 45.227 111.738 46.4741 110.237 47.2441C108.734 48.0121 106.912 48.3984 104.769 48.3984C102.818 48.3984 100.936 48.0235 99.1221 47.2725C97.3092 46.5215 95.7091 45.4338 94.3252 44.0068C92.9394 42.5809 91.8374 40.855 91.0205 38.8281C90.2005 36.8002 89.79 34.5489 89.79 31.96C89.7901 29.3711 90.1893 27.063 90.9893 25.0361C91.7892 23.0113 92.8602 21.2863 94.2061 19.8584C95.55 18.4325 97.1304 17.3438 98.9443 16.5928C100.757 15.8418 102.697 15.4668 104.764 15.4668C108.779 15.4669 111.862 16.9128 114.006 19.8008H114.18L114.187 19.7998C114.187 19.7998 117.279 15.3272 125.067 15.3271V47.6094ZM54.0518 15.3301C54.1204 15.3259 61.1487 14.9121 64.6963 19.8389C66.7873 17.3689 70.7143 15.3564 75.2783 15.3564C81.5522 15.3565 86.7469 19.8563 86.7471 28.6641V47.6494H76.1025V29.3623C76.1025 25.5614 73.5683 23.9766 70.5273 23.9766C68.2465 23.9766 66.1553 24.5471 64.6963 25.751V47.6494H54.0518V15.3301ZM10.6445 47.6094H0V26.9619C0 21.0831 4.76575 15.3431 10.6445 15.3428V47.6094ZM30.5703 24.6416C26.2793 24.6416 22.8018 28.0793 22.8018 32.3213C22.8018 36.5633 26.2793 40.001 30.5703 40.001C34.8602 40.0009 38.3369 36.5632 38.3369 32.3213V24.6416H30.5703ZM106.412 24.6416C102.121 24.6418 98.6445 28.0794 98.6445 32.3213C98.6445 36.5632 102.121 40.0008 106.412 40.001C110.702 40.001 114.18 36.5633 114.18 32.3213V24.6416H106.412ZM12.0205 0C12.7744 7.35093 7.42808 13.9218 0.0771484 14.6758C-0.676782 7.32383 4.66955 0.752996 12.0205 0Z" fill="white"/>
</svg>
