<svg width="97" height="98" viewBox="0 0 97 98" fill="none" xmlns="http://www.w3.org/2000/svg">
<path d="M78.0654 85.977C69.8984 92.691 59.4824 96.715 48.1374 96.715C21.9104 96.715 0.650391 75.21 0.650391 48.683V0.65097H48.1374C74.3644 0.65097 95.6244 22.155 95.6244 48.683C95.6244 53.108 95.0334 57.394 93.9254 61.464" stroke="#66A491" stroke-width="1.302"/>
<path d="M96.3691 62.0984C96.3691 63.9384 94.8771 65.4304 93.0371 65.4304C91.1971 65.4304 89.7051 63.9384 89.7051 62.0984C89.7051 60.2584 91.1971 58.7664 93.0371 58.7664C94.8771 58.7664 96.3691 60.2584 96.3691 62.0984Z" fill="#66A491"/>
<path d="M79.7109 85.9766C79.7109 87.8166 78.2189 89.3086 76.3789 89.3086C74.5389 89.3086 73.0469 87.8166 73.0469 85.9766C73.0469 84.1366 74.5389 82.6446 76.3789 82.6446C78.2189 82.6446 79.7109 84.1366 79.7109 85.9766Z" fill="#66A491"/>
<path d="M62.2677 65.1423C46.7427 65.1423 34.1577 52.5573 34.1577 37.0323C34.1577 27.9563 38.4627 19.8903 45.1377 14.7513C28.3797 16.1783 15.2207 30.2243 15.2207 47.3523C15.2207 65.4283 29.8747 80.0823 47.9507 80.0823C61.4157 80.0823 72.9757 71.9483 78.0007 60.3293C73.5117 63.3673 68.0967 65.1423 62.2677 65.1423Z" stroke="#006847"/>
<path d="M56.4791 24.4499L56.8201 21.0279L57.1601 24.4499C57.5411 28.2739 60.5651 31.2979 64.3891 31.6789L67.8121 32.0189L64.3891 32.3599C60.5651 32.7409 57.5411 35.7649 57.1601 39.5889L56.8201 43.0109L56.4791 39.5889C56.0981 35.7649 53.0741 32.7409 49.2501 32.3599L45.8281 32.0189L49.2501 31.6789C53.0741 31.2979 56.0981 28.2739 56.4791 24.4499Z" stroke="#006847"/>
<path d="M73.8485 39.7914L74.3315 37.4664L74.8155 39.7914C75.2035 41.6564 76.6605 43.1144 78.5265 43.5024L80.8515 43.9854L78.5265 44.4694C76.6605 44.8574 75.2035 46.3144 74.8155 48.1804L74.3315 50.5054L73.8485 48.1804C73.4605 46.3144 72.0035 44.8574 70.1375 44.4694L67.8125 43.9854L70.1375 43.5024C72.0035 43.1144 73.4605 41.6564 73.8485 39.7914Z" stroke="#006847"/>
</svg>
