<svg width="153" height="172" viewBox="0 0 153 172" fill="none" xmlns="http://www.w3.org/2000/svg">
<path d="M24.7713 77.4963C25.1123 77.4963 25.2263 77.3823 25.2263 77.0413V73.3573C25.2263 73.0163 25.1123 72.9023 24.7713 72.9023H20.1773V77.4963H24.7713ZM16.9023 69.9003H25.3173C27.4783 69.9003 28.5013 70.9233 28.5013 73.0843V77.3143C28.5013 79.4753 27.4783 80.4983 25.3173 80.4983H20.1773V85.8213H16.9023V69.9003Z" fill="#733E91"/>
<path d="M34.4839 82.8186H39.2379C39.5779 82.8186 39.6919 82.7046 39.6919 82.3636V73.3576C39.6919 73.0156 39.5779 72.9016 39.2379 72.9016H34.4839C34.1429 72.9016 34.0289 73.0156 34.0289 73.3576V82.3636C34.0289 82.7046 34.1429 82.8186 34.4839 82.8186ZM30.7539 82.6366V73.0846C30.7539 70.9226 31.7769 69.9006 33.9379 69.9006H39.7829C41.9439 69.9006 42.9679 70.9226 42.9679 73.0846V82.6366C42.9679 84.7976 41.9439 85.8206 39.7829 85.8206H33.9379C31.7769 85.8206 30.7539 84.7976 30.7539 82.6366Z" fill="#733E91"/>
<path d="M54.3369 82.8186C54.6779 82.8186 54.7919 82.7046 54.7919 82.3636V73.3576C54.7919 73.0156 54.6779 72.9016 54.3369 72.9016H49.4469V82.8186H54.3369ZM46.1719 69.9006H54.8829C57.0439 69.9006 58.0669 70.9226 58.0669 73.0846V82.6366C58.0669 84.7976 57.0439 85.8206 54.8829 85.8206H46.1719V69.9006Z" fill="#733E91"/>
<path d="M59.6133 69.9002H63.0253L65.5043 81.5902L68.4383 69.9002H71.2133L74.1473 81.5902L76.6263 69.9002H79.9013L75.8983 85.8212H72.4413L69.8253 75.4502L67.2103 85.8212H63.5933L59.6133 69.9002Z" fill="#733E91"/>
<path d="M87.9043 65.1238H91.8853L88.4963 68.3988H85.8573L87.9043 65.1238ZM85.1753 82.8188H89.9293C90.2693 82.8188 90.3833 82.7048 90.3833 82.3638V73.3568C90.3833 73.0158 90.2693 72.9018 89.9293 72.9018H85.1753C84.8343 72.9018 84.7203 73.0158 84.7203 73.3568V82.3638C84.7203 82.7048 84.8343 82.8188 85.1753 82.8188ZM81.4453 82.6368V73.0838C81.4453 70.9228 82.4683 69.8998 84.6293 69.8998H90.4743C92.6353 69.8998 93.6593 70.9228 93.6593 73.0838V82.6368C93.6593 84.7978 92.6353 85.8208 90.4743 85.8208H84.6293C82.4683 85.8208 81.4453 84.7978 81.4453 82.6368Z" fill="#733E91"/>
<path d="M95.6836 82.637V79.089H98.9586V82.364C98.9586 82.705 99.0726 82.819 99.4136 82.819H102.712C103.053 82.819 103.167 82.705 103.167 82.364V69.9H106.442V82.637C106.442 84.798 105.418 85.821 103.258 85.821H98.8676C96.7066 85.821 95.6836 84.798 95.6836 82.637Z" fill="#733E91"/>
<path d="M109.875 69.9002H113.286L119.314 80.1572V69.9002H122.498V85.8212H119.314L113.059 75.1992V85.8212H109.875V69.9002Z" fill="#733E91"/>
<path d="M126.09 69.9002H136.803V72.9022H129.365V76.2002H135.392V79.1572H129.365V82.8182H136.803V85.8212H126.09V69.9002Z" fill="#733E91"/>
<path d="M28.9462 107.376C29.2872 107.376 29.4012 107.262 29.4012 106.921V97.9147C29.4012 97.5727 29.2872 97.4587 28.9462 97.4587H24.0563V107.376H28.9462ZM20.7812 94.4577H29.4923C31.6533 94.4577 32.6763 95.4807 32.6763 97.6417V107.194C32.6763 109.355 31.6533 110.378 29.4923 110.378H20.7812V94.4577Z" fill="#733E91"/>
<path d="M34.9023 107.922L42.3623 97.3687H35.3113V94.4577H46.4113V96.9137L38.9503 107.467H46.3653V110.379H34.9023V107.922Z" fill="#733E91"/>
<path d="M49.2539 94.4575H52.5288V110.378H49.2539V94.4575Z" fill="#733E91"/>
<path d="M63.7434 103.919L61.8554 97.2317L59.9684 103.919H63.7434ZM59.5354 94.4577H64.3114L69.1564 110.378H65.5634L64.5854 106.921H59.1264L58.1484 110.378H54.6914L59.5354 94.4577Z" fill="#733E91"/>
<path d="M71.3154 103.532L69.8594 104.101V101.076L71.3154 100.507V94.4569H74.5904V99.2559L77.6834 98.0739V101.098L74.5904 102.282V107.376H81.4594V110.378H71.3154V103.532Z" fill="#733E91"/>
<path d="M91.5559 103.919L89.6679 97.2317L87.7809 103.919H91.5559ZM87.3479 94.4577H92.1239L96.9689 110.378H93.3759L92.3979 106.921H86.9389L85.9609 110.378H82.5039L87.3479 94.4577Z" fill="#733E91"/>
<path d="M99.1289 94.4572H102.54L108.568 104.714V94.4572H111.752V110.378H108.568L102.313 99.7562V110.378H99.1289V94.4572Z" fill="#733E91"/>
<path d="M115.344 94.4575H118.619V110.378H115.344V94.4575Z" fill="#733E91"/>
<path d="M122.215 94.4572H132.928V97.4592H125.49V100.757H131.517V103.714H125.49V107.375H132.928V110.378H122.215V94.4572Z" fill="#733E91"/>
<path d="M101.391 13.2629C101.369 13.6879 101.334 14.1079 101.294 14.5269C130.801 25.0009 151.961 52.9049 151.961 85.6009C151.961 123.356 123.75 154.716 87.0508 160.235C87.0738 160.593 87.0908 160.953 87.0998 161.316C124.282 156.154 153.003 124.161 153.003 85.5809C153.003 52.1139 131.391 23.6029 101.391 13.2629Z" fill="#733E91"/>
<path d="M51.612 161.316C51.634 160.891 51.669 160.47 51.709 160.052C22.202 149.577 1.042 121.674 1.042 88.9767C1.042 51.2227 29.253 19.8627 65.952 14.3437C65.929 13.9857 65.912 13.6257 65.903 13.2627C28.721 18.4247 0 50.4177 0 88.9977C0 122.465 21.612 150.976 51.612 161.316Z" fill="#733E91"/>
<path d="M76.5334 1.35914C71.0744 1.35914 66.6324 5.80014 66.6324 11.2601C66.6324 16.7191 71.0744 21.1601 76.5334 21.1601C81.9924 21.1601 86.4344 16.7191 86.4344 11.2601C86.4344 5.80014 81.9924 1.35914 76.5334 1.35914ZM76.5334 22.5201C70.3244 22.5201 65.2734 17.4681 65.2734 11.2601C65.2734 5.05114 70.3244 0.000143051 76.5334 0.000143051C82.7424 0.000143051 87.7934 5.05114 87.7934 11.2601C87.7934 17.4681 82.7424 22.5201 76.5334 22.5201Z" fill="#733E91"/>
<path d="M76.5334 150.481C71.0744 150.481 66.6324 154.922 66.6324 160.382C66.6324 165.841 71.0744 170.283 76.5334 170.283C81.9924 170.283 86.4344 165.841 86.4344 160.382C86.4344 154.922 81.9924 150.481 76.5334 150.481ZM76.5334 171.642C70.3244 171.642 65.2734 166.591 65.2734 160.382C65.2734 154.173 70.3244 149.122 76.5334 149.122C82.7424 149.122 87.7934 154.173 87.7934 160.382C87.7934 166.591 82.7424 171.642 76.5334 171.642Z" fill="#733E91"/>
</svg>
