<svg width="97" height="98" viewBox="0 0 97 98" fill="none" xmlns="http://www.w3.org/2000/svg">
<path d="M78.0654 85.977C69.8984 92.691 59.4824 96.715 48.1374 96.715C21.9104 96.715 0.650391 75.21 0.650391 48.683V0.65097H48.1374C74.3644 0.65097 95.6244 22.155 95.6244 48.683C95.6244 53.108 95.0334 57.394 93.9254 61.464" stroke="#66A491" stroke-width="1.302"/>
<path d="M96.3691 62.0984C96.3691 63.9384 94.8771 65.4304 93.0371 65.4304C91.1971 65.4304 89.7051 63.9384 89.7051 62.0984C89.7051 60.2584 91.1971 58.7664 93.0371 58.7664C94.8771 58.7664 96.3691 60.2584 96.3691 62.0984Z" fill="#66A491"/>
<path d="M79.7109 85.9766C79.7109 87.8166 78.2189 89.3086 76.3789 89.3086C74.5389 89.3086 73.0469 87.8166 73.0469 85.9766C73.0469 84.1366 74.5389 82.6446 76.3789 82.6446C78.2189 82.6446 79.7109 84.1366 79.7109 85.9766Z" fill="#66A491"/>
<path d="M12.6133 55.9272H84.8683" stroke="#006847"/>
<path d="M22.5703 63.4591H74.9103" stroke="#006847"/>
<path d="M35.1602 52.2815C35.1602 45.0195 41.0472 39.1325 48.3092 39.1325C55.5712 39.1325 61.4582 45.0195 61.4582 52.2815" stroke="#006847"/>
<path d="M24.3262 49.257H30.4542" stroke="#006847"/>
<path d="M36.8203 30.1578L39.8453 35.4868" stroke="#006847"/>
<path d="M21.0547 33.6188C22.7777 34.7678 34.5227 41.8528 34.5227 41.8528" stroke="#006847"/>
<path d="M73.1534 49.257H67.0254" stroke="#006847"/>
<path d="M60.6617 30.1578L57.6367 35.4868" stroke="#006847"/>
<path d="M76.425 33.6188C74.702 34.7678 62.957 41.8528 62.957 41.8528" stroke="#006847"/>
<path d="M48.3906 17.8339C48.3316 19.9049 48.5606 33.6189 48.5606 33.6189" stroke="#006847"/>
</svg>
