<svg width="58" height="58" viewBox="0 0 58 58" fill="none" xmlns="http://www.w3.org/2000/svg">
<path d="M18.4743 40.5556H9.13225C9.35325 41.1626 9.81225 41.7866 10.1923 42.3216C12.9923 46.2686 17.1243 49.2666 21.7023 50.8196C20.3443 47.4976 19.0983 44.1096 18.4743 40.5556ZM17.5513 23.1416H6.59525C5.65025 26.9136 5.65025 30.9006 6.59525 34.6736H17.5513C17.2663 30.8296 17.2663 26.9906 17.5513 23.1416ZM48.8053 17.2596C48.5853 16.6526 48.1263 16.0286 47.7463 15.4936C44.9443 11.5446 40.7873 8.49064 36.1783 6.99464C36.8083 8.69664 37.5543 10.3596 38.1103 12.0966C38.3453 12.8286 38.5633 13.5846 38.7633 14.3276C39.0243 15.2986 39.1573 16.3536 39.5213 17.2596H48.8053ZM18.4743 17.2596C19.1193 13.7066 20.3393 10.3176 21.7023 6.99564C17.1113 8.55064 13.0003 11.5356 10.1923 15.4936C9.81225 16.0286 9.35325 16.6526 9.13225 17.2596H18.4743ZM33.4673 17.2596C32.4443 13.3176 31.2053 9.31964 28.8553 5.95764C26.8333 9.48664 25.3133 13.2646 24.4713 17.2596H33.4673ZM51.3433 23.1416H40.2713C40.5003 24.6936 40.4873 26.2506 40.4973 27.8166C40.4993 28.0916 40.6233 28.3466 40.6273 28.6196C40.6653 31.4736 37.2093 32.9906 35.3803 30.7426C34.3763 29.5086 34.7483 26.6846 34.6193 25.0456C34.5693 24.4176 34.4673 23.7666 34.3893 23.1416H23.4333C23.1303 26.9796 23.1043 30.8366 23.4333 34.6736H29.6033C29.7613 34.6736 30.5583 35.1346 30.7363 35.2706C32.9163 36.9326 31.5893 40.5556 29.1423 40.5556H24.4713C25.0633 43.3456 25.9263 46.0916 27.1403 48.6696C27.4393 49.3046 28.4483 51.3946 28.8473 51.8066C29.1763 52.1456 31.3593 51.9096 32.0133 51.9856C35.6643 52.4106 35.4993 57.2636 32.4593 57.8276C30.7773 58.1396 26.9013 57.8506 25.1203 57.6096C4.87025 54.8666 -6.46675 32.2496 3.92325 14.4136C15.6863 -5.77736 45.1873 -4.48936 55.1693 16.6046C57.1513 20.7926 58.7073 27.7306 57.6563 32.2806C56.9013 35.5496 52.2013 35.2246 51.9143 32.0836C51.8513 31.3846 52.0293 30.7536 52.0393 30.1236C52.0793 27.7296 51.9383 25.4656 51.3433 23.1416Z" fill="white"/>
<path d="M37.587 36.5454C37.903 36.4804 38.233 36.4904 38.545 36.5724C39.614 36.8544 41.843 38.0584 43.002 38.5744C46.645 40.1964 51.043 41.9524 54.498 43.8004C55.66 44.4224 56.202 45.3074 55.208 46.4384C53.655 47.4574 51.51 48.0664 49.994 49.0664C48.798 49.8544 47.581 53.5424 46.637 54.9354C45.952 55.9454 44.766 55.8484 44.096 54.8944C42.338 50.8824 40.418 46.9404 38.636 42.9394C38.218 41.9994 36.707 39.0524 36.588 38.2994C36.47 37.5494 36.783 36.7114 37.587 36.5454Z" fill="white"/>
</svg>
