<svg width="51" height="61" viewBox="0 0 51 61" fill="none" xmlns="http://www.w3.org/2000/svg">
<path d="M41.4227 38.7821C41.2857 38.8941 40.8657 39.6541 40.8657 39.7811V42.4171H43.9117V40.2491C43.9117 40.0781 43.6187 39.2011 43.4967 39.0241C43.0427 38.3691 42.0287 38.2881 41.4227 38.7821ZM29.5017 39.3141L29.4937 49.2781C29.6057 50.1321 31.1567 50.5831 31.8067 49.9971C32.0817 49.7491 32.2727 49.0561 32.3107 48.6851C32.5147 46.6841 32.5117 42.1381 32.3107 40.1341C32.1257 38.3001 30.5587 37.9401 29.5017 39.3141ZM21.8837 18.5711C21.9867 19.6121 22.4167 20.4031 23.5837 20.2741C24.4197 20.1821 24.7147 19.2971 24.7997 18.5591C25.0207 16.6581 24.9877 12.3101 24.8107 10.3711C24.7057 9.22206 24.2967 8.14406 22.9037 8.46106C22.2487 8.61006 21.9427 9.55306 21.8847 10.1371C21.6837 12.1381 21.6867 16.5661 21.8837 18.5711ZM18.8477 9.67806C19.1767 7.57906 20.4857 5.91706 22.6777 5.65706C25.5697 5.31406 27.6047 7.18706 27.8567 10.0201C28.0577 12.2761 28.0307 16.2991 27.8637 18.5761C27.6237 21.8311 25.3227 23.7201 22.0417 22.9831C20.7377 22.6911 19.5667 21.5141 19.1317 20.2681C18.4957 18.4451 18.5327 11.6951 18.8477 9.67806ZM35.1627 22.1261C35.5557 21.8311 35.8347 21.3321 36.2957 21.2081V22.8491H39.3417V5.85806H36.2957V18.8061C36.2957 19.2771 34.5767 20.6591 33.8327 20.2141C33.7407 20.1591 33.4837 19.4751 33.4837 19.3921V5.85806H30.4367V20.4471C30.4367 20.5811 30.5837 21.3521 30.6297 21.5431C31.1907 23.8751 33.6957 23.2251 35.1627 22.1261ZM46.9587 40.3671C46.9587 37.9261 45.1497 35.8471 42.6877 35.7331C39.6827 35.5951 38.0017 37.4761 37.8137 40.3611C37.6647 42.6401 37.6277 46.4231 37.8337 48.6711C38.1307 51.9171 40.8137 53.8041 43.9767 52.8521C45.4997 52.3931 46.9587 50.6671 46.9587 49.0381V46.9871H43.7947V49.0381C43.7947 49.1291 43.3887 49.9071 43.2897 49.9971C42.8247 50.4191 41.8427 50.3461 41.3907 49.9191C41.2607 49.7961 40.8657 49.0411 40.8657 48.9201V44.8781H46.9587V40.3671ZM35.3627 39.1901C35.0827 35.1461 31.9007 34.6691 29.4997 37.4961V30.1141H26.4527V52.8461H29.4997L29.5007 51.3231C32.2227 54.1691 35.1007 53.6141 35.3637 49.3951C35.5457 46.4821 35.5647 42.0921 35.3627 39.1901ZM23.7577 35.9721H20.7107V48.8031C20.7107 49.2321 19.0867 50.6481 18.3287 50.1601C18.2777 50.1281 18.0167 49.6541 18.0167 49.6231V35.9721H14.9697L14.9647 50.2141C15.2557 54.5041 18.5797 53.3081 20.7107 51.0881V52.8461H23.7577V35.9721ZM14.5007 30.1141H3.8377V33.3951H7.4707V52.8461H10.8687V33.3951H14.5007V30.1141ZM49.8307 54.3701C48.2697 60.1801 42.4947 59.5201 37.6447 59.7601C29.1867 60.1791 19.9817 60.2511 11.5137 59.7581C6.99369 59.4951 2.36769 59.5911 0.965694 54.3701C-0.316303 49.5941 -0.0333061 42.0751 0.203693 37.0841C0.413696 32.6761 0.504696 26.4231 6.0197 25.4411C8.99269 24.9111 12.9387 24.8431 15.9997 24.7581C24.4507 24.5251 34.3357 24.3271 42.6807 25.1931C48.7507 25.8231 49.8907 28.4321 50.4737 34.1571C51.0007 39.3391 51.1557 49.4391 49.8307 54.3701ZM10.0797 9.40106C9.1307 6.23406 7.89769 3.14406 6.8847 5.72205e-05H10.5167L12.9187 8.90606L15.2037 5.72205e-05H18.7197L14.6177 13.5331V22.8491H11.2197V13.6501C11.2197 12.9191 10.3417 10.2781 10.0797 9.40106Z" fill="white"/>
</svg>
