<svg width="123" height="123" viewBox="0 0 123 123" fill="none" xmlns="http://www.w3.org/2000/svg">
<path d="M122.622 61.3111C122.622 95.1721 95.172 122.622 61.311 122.622C27.45 122.622 0 95.1721 0 61.3111C0 27.4501 27.45 6.86646e-05 61.311 6.86646e-05C95.172 6.86646e-05 122.622 27.4501 122.622 61.3111Z" fill="#016543"/>
<path d="M53.949 50.3067V72.4327L73.17 61.4397L53.949 50.3067ZM98.318 57.8267C98.38 59.9837 98.38 62.3217 98.318 64.4787C98.202 68.4757 97.972 72.9707 97.264 76.9457C95.472 87.0067 88.156 86.3037 79.748 86.7507C70.356 87.2497 60.978 87.2497 51.57 87.0327C46.425 86.9137 41.232 86.9047 36.119 86.2967C26.657 85.1727 25.54 80.7337 24.756 72.0697C24.033 64.0697 23.982 53.6937 25.379 45.7967C27.263 35.1497 35.725 36.2527 44.481 35.8437C55.616 35.3237 66.744 35.3187 77.869 35.8437C83.37 36.1037 92.058 35.5727 95.461 40.6567C97.908 44.3117 98.189 53.3807 98.318 57.8267Z" fill="white"/>
</svg>
