<svg width="175" height="156" viewBox="0 0 175 156" fill="none" xmlns="http://www.w3.org/2000/svg">
<path d="M54.9941 71.3248C54.9941 76.4088 59.1151 80.5308 64.2001 80.5308C69.2841 80.5308 73.4051 76.4088 73.4051 71.3248C73.4051 66.2408 69.2841 62.1188 64.2001 62.1188C59.1151 62.1188 54.9941 66.2408 54.9941 71.3248Z" fill="#92C5EB"/>
<path d="M135.172 88.7617L111.293 79.3307L90.4249 62.8767L78.5859 61.4717" stroke="#3B6858" stroke-width="1.613" stroke-linecap="round" stroke-linejoin="round"/>
<path d="M92.0299 69.8997L75.7759 66.4887L64.7399 67.8927L63.3359 71.3037L71.5629 76.9227L79.5889 76.7217L93.0329 81.1367" stroke="#3B6858" stroke-width="1.613" stroke-linecap="round" stroke-linejoin="round"/>
<path d="M83.2012 78.1268L87.8162 86.9558L97.4232 89.5688" stroke="#3B6858" stroke-width="1.613" stroke-linecap="round" stroke-linejoin="round"/>
<path d="M96.2344 94.3289L114.204 106.294" stroke="#3B6858" stroke-width="1.613" stroke-linecap="round" stroke-linejoin="round"/>
<path d="M109.888 114.045L92.0293 88.3599" stroke="#3B6858" stroke-width="1.613" stroke-linecap="round" stroke-linejoin="round"/>
<path d="M81.3963 67.4912L77.7843 60.0672L72.5673 53.2442L71.3633 44.0142" stroke="#3B6858" stroke-width="1.613" stroke-linecap="round" stroke-linejoin="round"/>
<path d="M73.3683 103.61L55.9113 98.1924L46.8813 88.9624L43.4703 87.1564L37.0493 89.1624L33.2363 85.5504L38.4533 78.7284L48.4863 77.1234L58.5193 84.9484" stroke="#3B6858" stroke-width="1.613" stroke-linecap="round" stroke-linejoin="round"/>
<path d="M43.4705 77.5249L26.0135 51.6399L20.3945 38.1949L20.8725 34.1689L26.8155 34.7839L32.8355 46.4219L38.2535 53.8469L46.6815 60.8699" stroke="#3B6858" stroke-width="1.613" stroke-linecap="round" stroke-linejoin="round"/>
<path d="M37.4514 52.4419L33.2374 36.3889L32.2344 25.9549L34.4414 23.3459L39.8594 26.9579L41.2644 35.3859L45.6784 45.4189L54.5074 56.2549" stroke="#3B6858" stroke-width="1.613" stroke-linecap="round" stroke-linejoin="round"/>
<path d="M51.3066 51.8994L51.4976 39.6004L63.5366 34.5834L72.5666 41.0044L71.3626 44.0144H62.9346L59.9246 40.4024" stroke="#3B6858" stroke-width="1.613" stroke-linecap="round" stroke-linejoin="round"/>
<path d="M62.9347 44.0144L60.9277 45.6194L62.1317 54.6494" stroke="#3B6858" stroke-width="1.613" stroke-linecap="round" stroke-linejoin="round"/>
<path d="M66.5469 36.5899L72.1649 27.9619L75.1749 28.9649L75.9779 34.3819L72.5669 41.0049" stroke="#3B6858" stroke-width="1.613" stroke-linecap="round" stroke-linejoin="round"/>
<path d="M69.7578 102.808L84.4058 129.295" stroke="#3B6858" stroke-width="1.613" stroke-linecap="round" stroke-linejoin="round"/>
<path d="M76.6931 1.03699C118.476 1.03699 152.349 35.298 152.349 77.56C152.349 119.823 118.476 154.084 76.6931 154.084C34.9091 154.084 1.03711 119.823 1.03711 77.56V1.03699H76.6931Z" stroke="#3B6858" stroke-width="2.074"/>
<path d="M174.092 151.38H122.939V100.227H174.092V151.38Z" fill="white"/>
<path d="M153.534 98.9347C153.534 101.867 151.158 104.243 148.226 104.243C145.294 104.243 142.918 101.867 142.918 98.9347C142.918 96.0027 145.294 93.6257 148.226 93.6257C151.158 93.6257 153.534 96.0027 153.534 98.9347Z" fill="#3B6858"/>
<path d="M126.993 136.976C126.993 139.908 124.617 142.285 121.685 142.285C118.753 142.285 116.377 139.908 116.377 136.976C116.377 134.044 118.753 131.668 121.685 131.668C124.617 131.668 126.993 134.044 126.993 136.976Z" fill="#3B6858"/>
</svg>
