<svg width="175" height="156" viewBox="0 0 175 156" fill="none" xmlns="http://www.w3.org/2000/svg">
<path d="M111.537 87.9216C111.537 100.494 101.345 110.685 88.7738 110.685C76.2018 110.685 66.0098 100.494 66.0098 87.9216C66.0098 75.3496 76.2018 65.1586 88.7738 65.1586C101.345 65.1586 111.537 75.3496 111.537 87.9216Z" fill="#92C5EB"/>
<path d="M47.4043 133.342L48.5943 110.138L63.4683 84.2558" stroke="#3B6858" stroke-width="1.613" stroke-linecap="round" stroke-linejoin="round"/>
<path d="M53.5909 76.6551L53.1309 91.6001" stroke="#3B6858" stroke-width="1.613" stroke-linecap="round" stroke-linejoin="round"/>
<path d="M47.3828 75.5056L48.0728 84.9326" stroke="#3B6858" stroke-width="1.613" stroke-linecap="round" stroke-linejoin="round"/>
<path d="M43.0137 73.4357L43.7037 78.0347" stroke="#3B6858" stroke-width="1.613" stroke-linecap="round" stroke-linejoin="round"/>
<mask id="mask0_149_3080" style="mask-type:luminance" maskUnits="userSpaceOnUse" x="0" y="16" width="123" height="123">
<path d="M0.652344 77.5234C0.652344 111.223 27.9523 138.523 61.6523 138.523C95.3523 138.523 122.652 111.223 122.652 77.5234C122.652 43.8234 95.3523 16.5234 61.6523 16.5234C27.9523 16.5234 0.652344 43.8234 0.652344 77.5234Z" fill="white"/>
</mask>
<g mask="url(#mask0_149_3080)">
<path d="M53.3555 3.63701L93.2195 67.894L96.4915 82.174L76.8575 133.937" stroke="#3B6858" stroke-width="1.613" stroke-linecap="round" stroke-linejoin="round"/>
<path d="M32.8281 9.28936L54.8421 44.6904L69.4191 53.0204L85.4841 60.1604L83.9961 63.4324L67.3371 61.3504L58.7101 85.1484L59.0071 91.6934" stroke="#3B6858" stroke-width="1.613" stroke-linecap="round" stroke-linejoin="round"/>
<path d="M84.4025 6.0664L82.1035 29.9794L82.3335 50.2124" stroke="#3B6858" stroke-width="1.613" stroke-linecap="round" stroke-linejoin="round"/>
<path d="M107.626 10.8955L96.5888 55.9615L100.958 82.1735L94.0598 95.2795L91.3008 95.6245" stroke="#3B6858" stroke-width="1.613" stroke-linecap="round" stroke-linejoin="round"/>
<path d="M11.0547 22.1621L37.4967 51.5931L40.2557 74.8161L43.7047 78.0351L44.6247 82.8631L48.0737 84.9331V88.3821L53.1317 91.6001L55.6607 97.8081" stroke="#3B6858" stroke-width="1.613" stroke-linecap="round" stroke-linejoin="round"/>
</g>
<path d="M76.6931 1.03699C118.476 1.03699 152.349 35.298 152.349 77.56C152.349 119.823 118.476 154.084 76.6931 154.084C34.9091 154.084 1.03711 119.823 1.03711 77.56V1.03699H76.6931Z" stroke="#3B6858" stroke-width="2.074"/>
<path d="M174.094 151.38H122.941V100.227H174.094V151.38Z" fill="white"/>
<path d="M153.534 98.9347C153.534 101.867 151.157 104.243 148.226 104.243C145.294 104.243 142.918 101.867 142.918 98.9347C142.918 96.0027 145.294 93.6257 148.226 93.6257C151.157 93.6257 153.534 96.0027 153.534 98.9347Z" fill="#3B6858"/>
<path d="M126.993 136.976C126.993 139.908 124.616 142.285 121.685 142.285C118.753 142.285 116.377 139.908 116.377 136.976C116.377 134.044 118.753 131.668 121.685 131.668C124.616 131.668 126.993 134.044 126.993 136.976Z" fill="#3B6858"/>
</svg>
