<svg width="175" height="156" viewBox="0 0 175 156" fill="none" xmlns="http://www.w3.org/2000/svg">
<path d="M63.0087 32.8965C63.0087 37.9805 58.8877 42.1025 53.8027 42.1025C48.7187 42.1025 44.5977 37.9805 44.5977 32.8965C44.5977 27.8125 48.7187 23.6915 53.8027 23.6915C58.8877 23.6915 63.0087 27.8125 63.0087 32.8965Z" fill="#92C5EB"/>
<path d="M110.222 40.8311C110.222 45.9151 106.101 50.0371 101.016 50.0371C95.9315 50.0371 91.8105 45.9151 91.8105 40.8311C91.8105 35.7471 95.9315 31.6251 101.016 31.6251C106.101 31.6251 110.222 35.7471 110.222 40.8311Z" fill="#92C5EB"/>
<path d="M92.1111 107.75C92.1111 119.829 82.3191 129.621 70.2401 129.621C58.1611 129.621 48.3691 119.829 48.3691 107.75C48.3691 95.6711 58.1611 85.8791 70.2401 85.8791C82.3191 85.8791 92.1111 95.6711 92.1111 107.75Z" fill="#92C5EB"/>
<path d="M71.7361 21.0039L67.3671 26.7519L43.2251 33.1899L11.9551 54.8029V64.0009L47.8231 96.4209" stroke="#3B6858" stroke-width="1.613" stroke-linecap="round" stroke-linejoin="round"/>
<path d="M89.4395 22.8432L89.6695 29.5112L111.972 49.0552L130.137 89.0632L127.607 98.0302L96.5675 105.157" stroke="#3B6858" stroke-width="1.613" stroke-linecap="round" stroke-linejoin="round"/>
<path d="M109.903 60.3217L95.877 100.789L98.866 124.472" stroke="#3B6858" stroke-width="1.613" stroke-linecap="round" stroke-linejoin="round"/>
<path d="M104.385 78.716L112.203 89.063L98.252 94.5" stroke="#3B6858" stroke-width="1.613" stroke-linecap="round" stroke-linejoin="round"/>
<path d="M33.3379 60.0917L55.5259 89.6377" stroke="#3B6858" stroke-width="1.613" stroke-linecap="round" stroke-linejoin="round"/>
<path d="M33.5664 59.8618L54.2604 51.5848" stroke="#3B6858" stroke-width="1.613" stroke-linecap="round" stroke-linejoin="round"/>
<path d="M46.6738 55.2632L49.4328 74.8072L48.7428 80.3252" stroke="#3B6858" stroke-width="1.613" stroke-linecap="round" stroke-linejoin="round"/>
<path d="M76.6931 1.03699C118.477 1.03699 152.349 35.298 152.349 77.56C152.349 119.823 118.477 154.084 76.6931 154.084C34.9091 154.084 1.03711 119.823 1.03711 77.56V1.03699H76.6931Z" stroke="#3B6858" stroke-width="2.074"/>
<path d="M174.096 151.478H122.943V102.18H174.096V151.478Z" fill="white"/>
<path d="M153.536 100.935C153.536 103.76 151.16 106.051 148.228 106.051C145.296 106.051 142.92 103.76 142.92 100.935C142.92 98.1098 145.296 95.8188 148.228 95.8188C151.16 95.8188 153.536 98.1098 153.536 100.935Z" fill="#3B6858"/>
<path d="M126.995 137.597C126.995 140.423 124.618 142.713 121.687 142.713C118.755 142.713 116.379 140.423 116.379 137.597C116.379 134.772 118.755 132.482 121.687 132.482C124.618 132.482 126.995 134.772 126.995 137.597Z" fill="#3B6858"/>
</svg>
