<svg width="63" height="69" viewBox="0 0 63 69" fill="none" xmlns="http://www.w3.org/2000/svg">
<path d="M46.2343 41.0349C46.2423 41.0389 46.2523 41.0409 46.2613 41.0379L60.8453 37.1309C61.6383 36.9189 62.4453 37.3889 62.6573 38.1869C62.8693 38.9679 62.4073 39.7869 61.6143 39.9989L49.9703 43.1189C49.9403 43.1269 49.9353 43.1679 49.9623 43.1839L60.3963 49.2139C61.1023 49.6249 61.3523 50.5319 60.9403 51.2429C60.6703 51.7119 60.1713 51.9869 59.6523 51.9869C59.4023 51.9869 59.1403 51.9239 58.9163 51.7869L48.4703 45.7569C48.4423 45.7409 48.4103 45.7659 48.4183 45.7969L51.5383 57.4399C51.7503 58.2339 51.2763 59.0399 50.4953 59.2639C50.3583 59.2889 50.2333 59.3149 50.1083 59.3149C49.4513 59.3149 48.8453 58.8689 48.6703 58.2089L44.7583 43.6289C44.7563 43.6199 44.7503 43.6129 44.7423 43.6079L32.8953 36.7629C32.8713 36.7489 32.8423 36.7659 32.8423 36.7929V50.4799C32.8423 50.4889 32.8453 50.4979 32.8523 50.5049L43.5283 61.1769C44.1103 61.7629 44.1103 62.6939 43.5283 63.2799C43.2413 63.5749 42.8553 63.7119 42.4683 63.7119C42.0993 63.7119 41.7123 63.5749 41.4253 63.2799L32.9023 54.7529C32.8803 54.7309 32.8423 54.7459 32.8423 54.7779V66.8289C32.8423 67.6479 32.1733 68.3219 31.3543 68.3219C30.5313 68.3219 29.8743 67.6479 29.8743 66.8289V54.7779C29.8743 54.7459 29.8363 54.7309 29.8133 54.7529L21.2913 63.2799C20.9913 63.5749 20.6213 63.7119 20.2353 63.7119C19.7753 63.7119 19.3383 63.5179 19.0373 63.0939C18.6033 62.4809 18.7433 61.6249 19.2743 61.0939L29.8643 50.5049C29.8703 50.4979 29.8743 50.4889 29.8743 50.4799V36.7929C29.8743 36.7659 29.8443 36.7489 29.8213 36.7629L17.9613 43.6079C17.9533 43.6129 17.9473 43.6199 17.9453 43.6289L14.0373 58.2089C13.8633 58.8689 13.2643 59.3149 12.6083 59.3149C12.4833 59.3149 12.3463 59.2889 12.2213 59.2639C11.4273 59.0399 10.9533 58.2339 11.1783 57.4399L14.2863 45.7969C14.2943 45.7659 14.2613 45.7409 14.2343 45.7569L3.80026 51.7869C3.56325 51.9239 3.31825 51.9869 3.05625 51.9869C2.54426 51.9869 2.05026 51.7119 1.77625 51.2429C1.36425 50.5319 1.60125 49.6249 2.30726 49.2139L12.7583 43.1839C12.7853 43.1679 12.7803 43.1269 12.7493 43.1189L1.10626 39.9989C0.308255 39.7869 -0.161746 38.9679 0.051255 38.1869C0.258252 37.3889 1.08125 36.9189 1.87525 37.1309L16.4553 41.0379C16.4643 41.0409 16.4743 41.0389 16.4823 41.0349L28.3293 34.1899C28.3523 34.1759 28.3523 34.1419 28.3293 34.1279L16.4823 27.2869C16.4743 27.2829 16.4643 27.2809 16.4553 27.2839L1.87525 31.1909C1.73826 31.2279 1.61326 31.2409 1.48925 31.2409C0.832253 31.2409 0.233254 30.8049 0.051255 30.1349C-0.161746 29.3539 0.308255 28.5349 1.10626 28.3229L12.7493 25.2029C12.7803 25.1949 12.7853 25.1539 12.7583 25.1379L2.30726 19.1039C1.60125 18.6969 1.36425 17.7859 1.77625 17.0789C2.18725 16.3729 3.09325 16.1229 3.80026 16.5349L14.2343 22.5649C14.2613 22.5809 14.2943 22.5559 14.2863 22.5249L11.1783 10.8819C10.9533 10.0879 11.4273 9.2779 12.2213 9.0529C13.0193 8.8459 13.8253 9.3149 14.0373 10.1129L17.9453 24.6929C17.9473 24.7019 17.9533 24.7089 17.9613 24.7139L29.8213 31.5589C29.8443 31.5729 29.8743 31.5559 29.8743 31.5289V17.8379C29.8743 17.8289 29.8703 17.8199 29.8643 17.8129L19.1923 7.1409C18.6013 6.5549 18.6053 5.6149 19.2053 5.0289C19.8033 4.4449 20.7963 4.5479 21.3883 5.1389L29.8133 13.5649C29.8363 13.5869 29.8743 13.5719 29.8743 13.5399V1.4879C29.8743 0.6689 30.5313 -9.91821e-05 31.3543 -9.91821e-05C32.1733 -9.91821e-05 32.8423 0.6689 32.8423 1.4879V13.5399C32.8423 13.5719 32.8803 13.5869 32.9023 13.5649L41.4253 5.0419C42.0163 4.4549 42.9593 4.4599 43.5443 5.0579C44.1283 5.6539 44.0253 6.6449 43.4353 7.2349L32.8523 17.8129C32.8453 17.8199 32.8423 17.8289 32.8423 17.8379V31.5289C32.8423 31.5559 32.8713 31.5729 32.8953 31.5589L44.7423 24.7139C44.7503 24.7089 44.7563 24.7019 44.7583 24.6929L48.6703 10.1129C48.8823 9.3149 49.7013 8.8459 50.4953 9.0529C51.2763 9.2779 51.7503 10.0879 51.5383 10.8819L48.4183 22.5249C48.4103 22.5559 48.4423 22.5809 48.4703 22.5649L58.9163 16.5349C59.6273 16.1229 60.5333 16.3729 60.9403 17.0789C61.3523 17.7859 61.1023 18.6969 60.3963 19.1039L49.9623 25.1379C49.9343 25.1539 49.9403 25.1949 49.9703 25.2029L61.6143 28.3229C62.4073 28.5349 62.8693 29.3539 62.6573 30.1349C62.4823 30.8049 61.8883 31.2409 61.2273 31.2409C61.1023 31.2409 60.9653 31.2279 60.8453 31.1909L46.2613 27.2839C46.2523 27.2809 46.2423 27.2829 46.2343 27.2869L34.3753 34.1279C34.3513 34.1419 34.3513 34.1759 34.3753 34.1899L46.2343 41.0349Z" fill="#4995D1"/>
</svg>
